<svg width="14" height="14" viewBox="0 0 14 14" fill="none" xmlns="http://www.w3.org/2000/svg">
<path fill-rule="evenodd" clip-rule="evenodd" d="M0.5 0H5.5C5.77615 0 6 0.223849 6 0.5V5.5C6 5.77615 5.77615 6 5.5 6H0.5C0.223849 6 0 5.77615 0 5.5V0.5C0 0.223849 0.223849 0 0.5 0ZM8.5 0H13.5C13.7762 0 14 0.223849 14 0.5V5.5C14 5.77615 13.7762 6 13.5 6H8.5C8.22385 6 8 5.77615 8 5.5V0.5C8 0.223849 8.22385 0 8.5 0ZM5.5 8H0.5C0.223849 8 0 8.22385 0 8.5V13.5C0 13.7762 0.223849 14 0.5 14H5.5C5.77615 14 6 13.7762 6 13.5V8.5C6 8.22385 5.77615 8 5.5 8ZM8.5 8H13.5C13.7762 8 14 8.22385 14 8.5V13.5C14 13.7762 13.7762 14 13.5 14H8.5C8.22385 14 8 13.7762 8 13.5V8.5C8 8.22385 8.22385 8 8.5 8Z" fill="#EAE8EA"/>
</svg>
