<svg width="14" height="12" viewBox="0 0 14 12" fill="none" xmlns="http://www.w3.org/2000/svg">
<path d="M4.20833 5.19031C4.20833 5.6609 4.27778 6.04844 4.41667 6.35294C4.55556 6.62976 4.70833 6.90658 4.875 7.18339C5.04167 7.43253 5.19444 7.70934 5.33333 8.01384C5.47222 8.31834 5.54167 8.70588 5.54167 9.17647C5.54167 10.1453 5.27778 10.8651 4.75 11.3356C4.25 11.7785 3.59722 12 2.79167 12C1.98611 12 1.31944 11.7785 0.791667 11.3356C0.263889 10.8651 0 10.1453 0 9.17647C0 8.45675 0.0972223 7.68166 0.291667 6.85121C0.513889 5.99308 0.805556 5.14879 1.16667 4.31834C1.52778 3.48789 1.93056 2.69896 2.375 1.95156C2.84722 1.20415 3.31944 0.553633 3.79167 0L5.66667 1.24568C5.27778 1.79931 4.93056 2.43599 4.625 3.15571C4.34722 3.84775 4.20833 4.52595 4.20833 5.19031ZM12.5417 5.19031C12.5417 5.6609 12.6111 6.04844 12.75 6.35294C12.8889 6.62976 13.0417 6.90658 13.2083 7.18339C13.375 7.43253 13.5278 7.70934 13.6667 8.01384C13.8056 8.31834 13.875 8.70588 13.875 9.17647C13.875 10.1453 13.6111 10.8651 13.0833 11.3356C12.5833 11.7785 11.9306 12 11.125 12C10.3194 12 9.65278 11.7785 9.125 11.3356C8.59722 10.8651 8.33333 10.1453 8.33333 9.17647C8.33333 8.45675 8.43055 7.68166 8.625 6.85121C8.84722 5.99308 9.13889 5.14879 9.5 4.31834C9.86111 3.48789 10.2639 2.69896 10.7083 1.95156C11.1806 1.20415 11.6528 0.553633 12.125 0L14 1.24568C13.6111 1.79931 13.2639 2.43599 12.9583 3.15571C12.6806 3.84775 12.5417 4.52595 12.5417 5.19031Z" fill="#D7DADC"/>
</svg>
