<svg width="10" height="16" viewBox="0 0 10 16" fill="none" xmlns="http://www.w3.org/2000/svg">
<path d="M9.74474 7.37568L2.62454 0.255608C2.45985 0.0907963 2.24002 2.86733e-07 2.00561 2.45748e-07C1.77121 2.04764e-07 1.55137 0.0907962 1.38669 0.255608L0.862339 0.779831C0.521139 1.12142 0.521139 1.6766 0.862339 2.01767L6.84135 7.99668L0.855703 13.9823C0.691021 14.1471 0.600095 14.3668 0.600095 14.6011C0.600095 14.8357 0.691021 15.0554 0.855703 15.2203L1.38006 15.7444C1.54487 15.9092 1.76457 16 1.99898 16C2.23338 16 2.45322 15.9092 2.6179 15.7444L9.74474 8.61782C9.90981 8.45249 10.0005 8.23174 9.99995 7.99707C10.0005 7.7615 9.90981 7.54088 9.74474 7.37568Z" fill="#949BA4"/>
</svg>
