<svg width="14" height="10" viewBox="0 0 14 10" fill="none" xmlns="http://www.w3.org/2000/svg">
<path d="M12.9654 4.6098L8.51527 0.159755C8.41235 0.0567477 8.27495 1.79208e-07 8.12845 1.53593e-07C7.98195 1.27977e-07 7.84455 0.0567476 7.74162 0.159755L7.4139 0.487394C7.20065 0.700889 7.20065 1.04788 7.4139 1.26105L11.1508 4.99793L7.40975 8.73895C7.30683 8.84196 7.25 8.97928 7.25 9.1257C7.25 9.27228 7.30683 9.4096 7.40975 9.51269L7.73747 9.84025C7.84048 9.94325 7.9778 10 8.1243 10C8.2708 10 8.4082 9.94325 8.51113 9.84025L12.9654 5.38614C13.0686 5.2828 13.1252 5.14484 13.1249 4.99817C13.1252 4.85094 13.0686 4.71305 12.9654 4.6098Z" fill="#C01111"/>
<rect y="4.25" width="12" height="1.5" rx="0.4" fill="#C01111"/>
</svg>
