<svg width="21" height="19" viewBox="0 0 21 19" fill="none" xmlns="http://www.w3.org/2000/svg">
<path d="M19.9438 1.8016L19.1747 1.04245C17.7665 -0.347477 15.4834 -0.347477 14.0752 1.04241C14.0752 1.04241 14.0752 1.04241 14.0751 1.04245L4.24695 10.743C3.2512 11.7258 3.2512 13.3193 4.24695 14.3021L4.7597 14.8082C5.77395 15.7459 7.3514 15.7459 8.36565 14.8082L15.6221 7.64596C15.7959 7.48026 15.8007 7.20691 15.6329 7.03534C15.465 6.86381 15.1881 6.85907 15.0142 7.02473C15.0106 7.02822 15.007 7.03174 15.0035 7.03534L7.747 14.1976C7.08057 14.8131 6.04478 14.8131 5.37835 14.1976L4.8656 13.6915C4.21151 13.046 4.21143 11.9994 4.86544 11.3538C4.86548 11.3537 4.86556 11.3537 4.8656 11.3536L14.6937 1.65303C15.7752 0.636399 17.4746 0.636399 18.556 1.65303L19.3252 2.41218C20.3913 3.46504 20.3913 5.17147 19.3252 6.22433L8.36561 17.0416C6.88643 18.501 4.48882 18.501 3.00965 17.0416L1.98412 16.0303C0.50548 14.5703 0.50548 12.2038 1.98412 10.7439L10.372 2.46489C10.5458 2.29919 10.5507 2.02584 10.3828 1.85427C10.2149 1.68274 9.93797 1.67797 9.76414 1.84367C9.76049 1.84715 9.75692 1.85067 9.7534 1.85427L1.36551 10.1324C-0.455164 11.9294 -0.455164 14.8429 1.36547 16.6399C1.36547 16.64 1.36551 16.64 1.36551 16.64L2.39104 17.6522C4.21168 19.4492 7.16354 19.4493 8.98422 17.6523C8.98422 17.6522 8.98426 17.6522 8.98426 17.6522L19.9438 6.83495C21.352 5.44506 21.3521 3.19153 19.9438 1.8016C19.9439 1.8016 19.9439 1.8016 19.9438 1.8016Z" fill="#CFD8DC"/>
</svg>
