<svg width="10" height="16" viewBox="0 0 10 16" fill="none" xmlns="http://www.w3.org/2000/svg">
<path d="M0.255263 8.62432L7.37546 15.7444C7.54015 15.9092 7.75998 16 7.99439 16C8.22879 16 8.44863 15.9092 8.61331 15.7444L9.13766 15.2202C9.47886 14.8786 9.47886 14.3234 9.13766 13.9823L3.15865 8.00332L9.1443 2.01768C9.30898 1.85286 9.3999 1.63316 9.3999 1.39888C9.3999 1.16435 9.30898 0.944643 9.1443 0.779701L8.61994 0.255608C8.45513 0.0907964 8.23543 8.51872e-07 8.00102 8.3138e-07C7.76662 8.10888e-07 7.54678 0.0907963 7.3821 0.255607L0.255263 7.38218C0.0901916 7.54752 -0.00047421 7.76826 4.55218e-05 8.00293C-0.000474251 8.2385 0.0901915 8.45912 0.255263 8.62432Z" fill="#949BA4"/>
</svg>
