<svg width="12" height="12" viewBox="0 0 12 12" fill="none" xmlns="http://www.w3.org/2000/svg">
<path fill-rule="evenodd" clip-rule="evenodd" d="M5.6325 0.9075L11.0925 6.63C11.3025 6.84 11.3025 7.155 11.0925 7.365L7.365 11.0925C7.155 11.3025 6.84 11.3025 6.63 11.0925L0.9075 5.6325C0.8025 5.5275 0.75 5.4225 0.75 5.265V1.275C0.75 0.96 0.96 0.75 1.275 0.75H5.265C5.37 0.75 5.5275 0.8025 5.6325 0.9075ZM1.95749 2.6924C2.16749 2.9024 2.48249 2.9024 2.69249 2.6924C2.90249 2.4824 2.90249 2.1674 2.69249 1.9574C2.48249 1.7474 2.16749 1.7474 1.95749 1.9574C1.74749 2.1674 1.74749 2.4824 1.95749 2.6924Z" fill="#6D5F6F"/>
</svg>
