<svg width="16" height="12" viewBox="0 0 16 12" fill="none" xmlns="http://www.w3.org/2000/svg">
<path fill-rule="evenodd" clip-rule="evenodd" d="M4.0042 0H14.0007C14.5528 0 15.0003 0.447562 15.0003 0.99965C15.0003 1.55174 14.5528 1.9993 14.0007 1.9993H4.0042C3.45211 1.9993 3.00455 1.55174 3.00455 0.99965C3.00455 0.447562 3.45211 0 4.0042 0ZM1.71 0.294897C1.89772 0.481519 2.00378 0.734961 2.0049 0.99965C2.01237 1.06441 2.01237 1.12982 2.0049 1.19458C1.98697 1.26047 1.96182 1.32416 1.92993 1.38452C1.90309 1.44371 1.87132 1.50057 1.83496 1.55446C1.79907 1.6105 1.75717 1.66245 1.71 1.7094C1.52257 1.89531 1.26922 1.99952 1.00525 1.9993C0.940491 2.00655 0.875076 2.00655 0.810318 1.9993C0.737281 1.98393 0.666649 1.95869 0.600391 1.92433C0.540162 1.89958 0.483089 1.86769 0.430451 1.82936C0.376251 1.79493 0.325987 1.7547 0.280503 1.7094C0.233332 1.66245 0.191441 1.6105 0.155547 1.55446C0.119185 1.50057 0.0874147 1.44371 0.0605804 1.38452C0.0353392 1.32341 0.0169081 1.25972 0.0055996 1.19458C-0.00186653 1.12982 -0.00186653 1.06441 0.0055996 0.99965C0.00669297 0.734961 0.11275 0.481519 0.300496 0.294897C0.690391 -0.0926863 1.32011 -0.0926863 1.71 0.294897ZM2.0049 5.49808C2.01233 5.43332 2.01233 5.3679 2.0049 5.30314C1.98762 5.23863 1.96245 5.17653 1.92993 5.11821C1.90418 5.05689 1.87235 4.99828 1.83496 4.94327C1.80032 4.88785 1.75827 4.8374 1.71 4.79332C1.32011 4.40574 0.690391 4.40574 0.300496 4.79332C0.11275 4.97994 0.00669297 5.23339 0.0055996 5.49808C0.00753642 5.62981 0.0329338 5.76011 0.0805734 5.88294C0.105627 5.94208 0.135742 5.99893 0.170542 6.05288C0.20856 6.10721 0.252107 6.15747 0.300496 6.20283C0.344668 6.251 0.395088 6.29305 0.450444 6.32778C0.503082 6.36615 0.560124 6.39804 0.620384 6.42275C0.681332 6.4484 0.745091 6.46686 0.810318 6.47773C0.874264 6.49207 0.93971 6.49879 1.00525 6.49773C1.07001 6.50519 1.13542 6.50519 1.20018 6.49773C1.26378 6.48682 1.32589 6.46836 1.38512 6.44274C1.447 6.41819 1.50573 6.3863 1.56006 6.34778C1.61541 6.31304 1.66583 6.27099 1.71 6.22282C1.75817 6.17865 1.80022 6.12823 1.83496 6.07287C1.87338 6.02027 1.90528 5.96322 1.92993 5.90293C1.96407 5.83658 1.98928 5.76598 2.0049 5.69301C2.01258 5.62825 2.01258 5.56283 2.0049 5.49808ZM2.0049 9.80157C2.0123 9.86633 2.0123 9.93174 2.0049 9.9965C2.01258 10.0613 2.01258 10.1267 2.0049 10.1914C1.98925 10.2644 1.96404 10.335 1.92993 10.4014C1.90531 10.4616 1.87341 10.5187 1.83496 10.5713C1.80022 10.6267 1.75817 10.6771 1.71 10.7212C1.66583 10.7694 1.61541 10.8115 1.56006 10.8462C1.50573 10.8847 1.447 10.9166 1.38512 10.9412C1.32589 10.9668 1.26378 10.9852 1.20018 10.9962C1.13542 11.0036 1.07001 11.0036 1.00525 10.9962C0.93971 10.9972 0.874264 10.9905 0.810318 10.9762C0.745091 10.9653 0.681332 10.9468 0.620384 10.9212C0.560124 10.8965 0.503082 10.8646 0.450444 10.8262C0.395088 10.7915 0.344668 10.7494 0.300496 10.7013C0.112781 10.5146 0.00672421 10.2612 0.0055996 9.9965C0.00481863 9.93096 0.0115038 9.86558 0.0255926 9.80157C0.0361826 9.73628 0.0546449 9.67249 0.0805734 9.61164C0.107408 9.55244 0.139178 9.49558 0.17554 9.44169C0.210278 9.38634 0.252326 9.33592 0.300496 9.29175C0.690391 8.90416 1.32011 8.90416 1.71 9.29175C1.75817 9.33592 1.80022 9.38634 1.83496 9.44169C1.87132 9.49558 1.90309 9.55244 1.92993 9.61164C1.96245 9.67171 1.98762 9.73547 2.0049 9.80157ZM15.0003 4.49843H4.0042C3.45211 4.49843 3.00455 4.94599 3.00455 5.49808C3.00455 6.05016 3.45211 6.49773 4.0042 6.49773H15.0003C15.5524 6.49773 16 6.05016 16 5.49808C16 4.94599 15.5524 4.49843 15.0003 4.49843ZM4.0042 8.99685H10.5019C11.054 8.99685 11.5016 9.44441 11.5016 9.9965C11.5016 10.5486 11.054 10.9962 10.5019 10.9962H4.0042C3.45211 10.9962 3.00455 10.5486 3.00455 9.9965C3.00455 9.44441 3.45211 8.99685 4.0042 8.99685Z" fill="#ABA4AC"/>
</svg>
