<svg width="74" height="122" viewBox="0 0 74 122" fill="none" xmlns="http://www.w3.org/2000/svg">
<path d="M3.85607 46.1034L34.1538 80.9473C35.6228 82.8007 38.5608 82.8007 40.0298 80.9473L70.1439 46.1034C71.4293 44.6207 74 45.5474 74 47.5861V78.7232C74 80.3913 73.4491 82.0593 72.3474 83.1714L40.0298 120.61C38.5608 122.463 35.6228 122.463 34.1538 120.61L1.6526 83.1714C0.550865 81.874 0 80.3913 0 78.7232V47.5861C0 45.5474 2.38709 44.6207 3.85607 46.1034Z" fill="#C01111"/>
<path d="M72.5301 25.5302C70.8775 23.8622 68.3068 23.8622 66.6541 25.5302C65.0015 27.1983 65.0015 29.793 66.6541 31.4611C68.3068 33.1291 70.8775 33.1291 72.5301 31.4611C74.1827 29.793 74.1827 27.0129 72.5301 25.5302Z" fill="#C01111"/>
<path d="M61.698 36.4656C60.0454 34.7976 57.4747 34.7976 55.8221 36.4656C54.1695 38.1337 54.1695 40.7285 55.8221 42.3965C57.4747 44.0646 60.0454 44.0646 61.698 42.3965C63.3507 40.7285 63.3507 38.1337 61.698 36.4656Z" fill="#C01111"/>
<path d="M50.8631 47.586C49.2105 45.9179 46.6398 45.9179 44.9872 47.586C43.3346 49.2541 43.3346 51.8488 44.9872 53.5169C46.6398 55.1849 49.2105 55.1849 50.8631 53.5169C52.3321 51.6635 52.3321 49.0687 50.8631 47.586Z" fill="#C01111"/>
<path d="M39.8465 58.5214C38.1939 56.8534 35.6232 56.8534 33.9706 58.5214C32.318 60.1895 32.318 62.7842 33.9706 64.4523C35.6232 66.1204 38.1939 66.1204 39.8465 64.4523C41.4991 62.7842 41.4991 60.1895 39.8465 58.5214Z" fill="#C01111"/>
<path d="M1.28501 25.5302C2.93762 23.8622 5.50833 23.8622 7.16094 25.5302C8.81354 27.1983 8.81354 29.793 7.16094 31.4611C5.50833 33.1291 2.93762 33.1291 1.28501 31.4611C-0.183968 29.793 -0.183968 27.0129 1.28501 25.5302Z" fill="#C01111"/>
<path d="M12.3026 36.4656C13.9552 34.7976 16.5259 34.7976 18.1785 36.4656C19.8311 38.1337 19.8311 40.7285 18.1785 42.3965C16.5259 44.0646 13.9552 44.0646 12.3026 42.3965C10.65 40.7285 10.65 38.1337 12.3026 36.4656Z" fill="#C01111"/>
<path d="M23.1366 47.586C24.7892 45.9179 27.3599 45.9179 29.0125 47.586C30.6651 49.2541 30.6651 51.8488 29.0125 53.5169C27.3599 55.1849 24.7892 55.1849 23.1366 53.5169C21.484 51.6635 21.484 49.0687 23.1366 47.586Z" fill="#C01111"/>
<path d="M34.1541 58.5214C35.8068 56.8534 38.3775 56.8534 40.0301 58.5214C41.6827 60.1895 41.6827 62.7842 40.0301 64.4523C38.3775 66.1204 35.8068 66.1204 34.1541 64.4523C32.5015 62.7842 32.5015 60.1895 34.1541 58.5214Z" fill="#C01111"/>
<path d="M1.28501 1.25104C2.93762 -0.417015 5.50833 -0.417015 7.16094 1.25104C8.81354 2.9191 8.81354 5.51386 7.16094 7.18192C5.50833 8.84997 2.93762 8.84997 1.28501 7.18192C-0.183968 5.32852 -0.183968 2.73376 1.28501 1.25104Z" fill="#C01111"/>
<path d="M12.3026 12.1865C13.9552 10.5184 16.5259 10.5184 18.1785 12.1865C19.8311 13.8545 19.8311 16.4493 18.1785 18.1173C16.5259 19.7854 13.9552 19.7854 12.3026 18.1173C10.65 16.4493 10.65 13.8545 12.3026 12.1865Z" fill="#C01111"/>
<path d="M23.1366 23.1219C24.7892 21.4538 27.3599 21.4538 29.0125 23.1219C30.6651 24.79 30.6651 27.3847 29.0125 29.0528C27.3599 30.7208 24.7892 30.7208 23.1366 29.0528C21.484 27.3847 21.484 24.79 23.1366 23.1219Z" fill="#C01111"/>
<path d="M34.1541 34.2423C35.8068 32.5742 38.3775 32.5742 40.0301 34.2423C41.6827 35.9103 41.6827 38.5051 40.0301 40.1731C38.3775 41.8412 35.8068 41.8412 34.1541 40.1731C32.5015 38.5051 32.5015 35.9103 34.1541 34.2423Z" fill="#C01111"/>
<path d="M72.5301 1.25104C70.8775 -0.417015 68.3068 -0.417015 66.6541 1.25104C65.0015 2.9191 65.0015 5.51386 66.6541 7.18192C68.3068 8.84997 70.8775 8.84997 72.5301 7.18192C74.1827 5.32852 74.1827 2.73376 72.5301 1.25104Z" fill="#C01111"/>
<path d="M61.698 12.1865C60.0454 10.5184 57.4747 10.5184 55.8221 12.1865C54.1695 13.8545 54.1695 16.4493 55.8221 18.1173C57.4747 19.7854 60.0454 19.7854 61.698 18.1173C63.3507 16.4493 63.3507 13.8545 61.698 12.1865Z" fill="#C01111"/>
<path d="M50.8631 23.1219C49.2105 21.4538 46.6398 21.4538 44.9872 23.1219C43.3346 24.79 43.3346 27.3847 44.9872 29.0528C46.6398 30.7208 49.2105 30.7208 50.8631 29.0528C52.3321 27.3847 52.3321 24.79 50.8631 23.1219Z" fill="#C01111"/>
<path d="M39.8465 34.2423C38.1939 32.5742 35.6232 32.5742 33.9706 34.2423C32.318 35.9103 32.318 38.5051 33.9706 40.1731C35.6232 41.8412 38.1939 41.8412 39.8465 40.1731C41.4991 38.5051 41.4991 35.9103 39.8465 34.2423Z" fill="#C01111"/>
</svg>
