<svg width="14" height="14" viewBox="0 0 14 14" fill="none" xmlns="http://www.w3.org/2000/svg">
<path fill-rule="evenodd" clip-rule="evenodd" d="M11.375 4.6667C10.6977 4.6667 10.0871 4.37684 9.66051 3.91463L5.44078 6.32027C5.50639 6.53542 5.5417 6.76368 5.5417 7.00005C5.5417 7.23627 5.50644 7.46439 5.4409 7.67942L9.66071 10.0851C10.0873 9.62302 10.6979 9.33325 11.375 9.33325C12.6619 9.33325 13.7083 10.3798 13.7083 11.6667C13.7083 12.9534 12.6619 14 11.375 14C10.0881 14 9.0417 12.9534 9.0417 11.6667C9.0417 11.476 9.06467 11.2906 9.108 11.1131L4.83139 8.67504C4.41114 9.08235 3.83854 9.33334 3.2083 9.33334C1.92154 9.33334 0.875 8.28691 0.875 7.00005C0.875 5.71318 1.92154 4.66675 3.2083 4.66675C3.83841 4.66675 4.4109 4.91763 4.83112 5.32479L9.10793 2.88656C9.06465 2.70916 9.0417 2.52386 9.0417 2.3333C9.0417 1.04654 10.0881 0 11.375 0C12.6619 0 13.7083 1.04654 13.7083 2.3333C13.7083 3.62016 12.6619 4.6667 11.375 4.6667Z" fill="#ABA4AC"/>
</svg>
